ply
format ascii 1.0
comment VCGLIB generated
element vertex 4
property float x
property float y
property float z
property float nx
property float ny
property float nz
property uchar red
property uchar green
property uchar blue
property uchar alpha
element face 2
property list uchar int vertex_indices
end_header
50 -17.10101 46.98463 0 0.9396926 0.3420202 107 118 178 255 
-50 -17.10101 46.98463 0 0.9396926 0.3420202 107 118 178 255 
50 17.10101 -46.98463 0 0.9396926 0.3420202 107 118 178 255 
-50 17.10101 -46.98463 0 0.9396926 0.3420202 107 118 178 255 
3 3 1 0 
3 0 2 3 
