ply
format ascii 1.0
comment VCGLIB generated
element vertex 4
property float x
property float y
property float z
property float nx
property float ny
property float nz
property uchar red
property uchar green
property uchar blue
property uchar alpha
element face 2
property list uchar int vertex_indices
end_header
50 -50 -4.547474e-13 0 -4.371139e-08 1 107 118 178 255 
-50 -50 -4.547474e-13 0 -4.371139e-08 1 107 118 178 255 
50 50 4.547474e-13 0 -4.371139e-08 1 107 118 178 255 
-50 50 4.547474e-13 0 -4.371139e-08 1 107 118 178 255 
3 3 1 0 
3 0 2 3 
